HIERARCHY
ROOT Hips
{
	OFFSET 0.000000 0.000000 0.000000
	CHANNELS 6 Xposition Yposition Zposition Zrotation Yrotation Xrotation 
	JOINT LHipJoint
	{
		OFFSET 0.000000 0.000000 0.000000
		CHANNELS 3 Zrotation Yrotation Xrotation
		JOINT LeftUpLeg
		{
			OFFSET 1.363060 -1.794630 0.839290
			CHANNELS 3 Zrotation Yrotation Xrotation
			JOINT LeftLeg
			{
				OFFSET 2.448110 -6.726130 0.000000
				CHANNELS 3 Zrotation Yrotation Xrotation
				JOINT LeftFoot
				{
					OFFSET 2.562200 -7.039590 0.000000
					CHANNELS 3 Zrotation Yrotation Xrotation
					JOINT LeftToeBase
					{
						OFFSET 0.157640 -0.433110 2.322550
						CHANNELS 3 Zrotation Yrotation Xrotation
						End Site
						{
							OFFSET 0.000000 0.000000 0.000000
						}
					}
				}
			}
		}
	}
	JOINT RHipJoint
	{
		OFFSET 0.000000 0.000000 0.000000
		CHANNELS 3 Zrotation Yrotation Xrotation
		JOINT RightUpLeg
		{
			OFFSET -1.305520 -1.794630 0.839290
			CHANNELS 3 Zrotation Yrotation Xrotation
			JOINT RightLeg
			{
				OFFSET -2.542530 -6.985550 0.000000
				CHANNELS 3 Zrotation Yrotation Xrotation
				JOINT RightFoot
				{
					OFFSET -2.568260 -7.056230 0.000000
					CHANNELS 3 Zrotation Yrotation Xrotation
					JOINT RightToeBase
					{
						OFFSET -0.164730 -0.452590 2.363150
						CHANNELS 3 Zrotation Yrotation Xrotation
						End Site
						{
							OFFSET 0.000000 0.000000 0.000000
						}
					}
				}
			}
		}
	}
	JOINT LowerBack
	{
		OFFSET 0.000000 0.000000 0.000000
		CHANNELS 3 Zrotation Yrotation Xrotation
		JOINT Spine
		{
			OFFSET 0.028270 2.035590 -0.193380
			CHANNELS 3 Zrotation Yrotation Xrotation
			JOINT Spine1
			{
				OFFSET 0.056720 2.048850 -0.042750
				CHANNELS 3 Zrotation Yrotation Xrotation
				JOINT Neck
				{
					OFFSET 0.000000 0.000000 0.000000
					CHANNELS 3 Zrotation Yrotation Xrotation
					JOINT Neck1
					{
						OFFSET -0.054170 1.746240 0.172020
						CHANNELS 3 Zrotation Yrotation Xrotation
						JOINT Head
						{
							OFFSET 0.104070 1.761360 -0.123970
							CHANNELS 3 Zrotation Yrotation Xrotation
							End Site
							{
								OFFSET 0.000000 0.000000 0.000000
							}
						}
					}
				}
				JOINT LeftShoulder
				{
					OFFSET 0.000000 0.000000 0.000000
					CHANNELS 3 Zrotation Yrotation Xrotation
					JOINT LeftArm
					{
						OFFSET 3.362410 1.200890 -0.311210
						CHANNELS 3 Zrotation Yrotation Xrotation
						JOINT LeftForeArm
						{
							OFFSET 4.983000 -0.000000 -0.000000
							CHANNELS 3 Zrotation Yrotation Xrotation
							JOINT LeftHand
							{
								OFFSET 3.483560 -0.000000 -0.000000
								CHANNELS 3 Zrotation Yrotation Xrotation
								JOINT LeftFingerBase
								{
									OFFSET 0.000000 0.000000 0.000000
									CHANNELS 3 Zrotation Yrotation Xrotation
									JOINT LeftHandIndex1
									{
										OFFSET 0.715260 -0.000000 -0.000000
										CHANNELS 3 Zrotation Yrotation Xrotation
										End Site
										{
											OFFSET 0.000000 0.000000 0.000000
										}
									}
								}
								JOINT LThumb
								{
									OFFSET 0.000000 0.000000 0.000000
									CHANNELS 3 Zrotation Yrotation Xrotation
									End Site
									{
										OFFSET 0.000000 0.000000 0.000000
									}
								}
							}
						}
					}
				}
				JOINT RightShoulder
				{
					OFFSET 0.000000 0.000000 0.000000
					CHANNELS 3 Zrotation Yrotation Xrotation
					JOINT RightArm
					{
						OFFSET -3.136600 1.374050 -0.404650
						CHANNELS 3 Zrotation Yrotation Xrotation
						JOINT RightForeArm
						{
							OFFSET -5.241900 -0.000000 -0.000000
							CHANNELS 3 Zrotation Yrotation Xrotation
							JOINT RightHand
							{
								OFFSET -3.444170 -0.000000 -0.000000
								CHANNELS 3 Zrotation Yrotation Xrotation
								JOINT RightFingerBase
								{
									OFFSET 0.000000 0.000000 0.000000
									CHANNELS 3 Zrotation Yrotation Xrotation
									JOINT RightHandIndex1
									{
										OFFSET -0.622530 -0.000000 -0.000000
										CHANNELS 3 Zrotation Yrotation Xrotation
										End Site
										{
											OFFSET 0.000000 0.000000 0.000000
										}
									}
								}
								JOINT RThumb
								{
									OFFSET 0.000000 0.000000 0.000000
									CHANNELS 3 Zrotation Yrotation Xrotation
									End Site
									{
										OFFSET 0.000000 0.000000 0.000000
									}
								}
							}
						}
					}
				}
			}
		}
	}
}
MOTION
Frames: 8
Frame Time: 0.008333
-11.271386 16.591289 -1.029212 12.338816 84.570455 38.124444 -8.476694 -1.267728 0.421751 -12.612899 -2.871848 -51.625653 -2.772388 0.369209 17.847008 0.492219 3.769059 6.325760 1.523900 0.000000 -18.044000 10.705276 -2.323186 -2.707531 5.808873 -1.891922 -7.575093 2.245587 -2.116916 27.703183 1.117088 12.017397 -1.218372 1.037600 0.000000 -72.884500 -7.030403 1.944388 4.504657 -2.668347 2.248555 -2.198687 -7.227295 2.141815 0.499090 9.261428 6.973189 4.200197 -4.638408 -0.423274 2.648235 0.000000 0.000000 0.000000 -8.758372 3.149499 1.842017 -58.276358 -3.868858 10.700928 -3.669181 -20.566075 -0.000199 3.511947 1.115970 0.035758 -0.081854 -0.014380 0.000000 0.000000 0.000000 0.000000 0.000000 0.000000 0.000000 19.587544 7.290654 -1.234570 79.293806 27.377941 20.030716 2.406675 28.595567 0.007853 2.666899 10.715271 0.255165 -0.004525 -0.174551 0.000000 0.000000 0.000000 0.000000 0.000000 0.000000 0.000000 
-11.113621 16.607163 -1.017225 15.389966 84.289663 41.172459 -8.291583 -1.173572 0.292345 -13.173091 -2.953462 -51.412604 -2.754882 0.437840 18.941727 0.563205 4.206423 5.926357 1.608600 0.000000 -18.001300 11.092345 -2.314290 -2.762235 4.948071 -2.372162 -8.766090 1.972179 -2.409620 30.161257 1.075978 12.172861 0.692525 1.434300 0.000000 -75.608200 -7.626145 1.837410 4.664541 -2.802075 2.162166 -2.167220 -7.272196 2.054927 0.479482 9.289706 7.196636 4.307311 -4.678200 -0.425386 2.661948 0.000000 0.000000 0.000000 -8.644928 2.847417 1.866807 -58.128753 -4.087203 10.180103 -3.706787 -19.853248 -0.000496 3.569653 1.256388 0.040648 -0.080351 -0.012369 0.000000 0.000000 0.000000 0.000000 0.000000 0.000000 0.000000 19.810658 7.323891 -1.217930 79.554254 26.851510 17.838586 2.408026 26.840803 0.007308 2.523102 10.740853 0.241754 -0.003674 -0.168764 0.000000 0.000000 0.000000 0.000000 0.000000 0.000000 0.000000 
-10.960561 16.628819 -1.007960 17.945884 84.024750 43.730314 -8.106925 -1.079205 0.174607 -13.665655 -3.095011 -51.046155 -2.749403 0.473089 19.802540 0.637784 4.608508 5.249144 1.652701 0.000000 -18.148400 11.446816 -2.270251 -2.826657 4.185161 -2.763833 -10.029708 1.667460 -2.688270 32.713839 0.996333 12.158302 2.869561 1.891001 -0.000000 -77.773000 -8.135755 1.736492 4.848043 -2.916759 2.077226 -2.126336 -7.297987 1.970317 0.464892 9.238826 7.422672 4.428941 -4.705389 -0.426725 2.679821 0.000000 0.000000 0.000000 -8.538220 2.501593 1.890007 -58.058583 -4.395572 9.629136 -3.738296 -19.093907 -0.000859 3.624226 1.408026 0.046041 -0.078683 -0.009437 0.000000 0.000000 0.000000 0.000000 0.000000 0.000000 0.000000 19.894002 7.351909 -1.203528 79.813100 26.363564 15.433366 2.403342 25.074409 0.006726 2.264046 10.751907 0.216845 -0.001486 -0.163001 0.000000 0.000000 0.000000 0.000000 0.000000 0.000000 0.000000 
-10.811798 16.655295 -1.002102 20.029670 83.780782 45.820344 -7.935482 -0.989761 0.067883 -14.086114 -3.273125 -50.534708 -2.756158 0.478110 20.418831 0.712624 4.960202 4.376391 1.654600 0.000000 -18.412100 11.757826 -2.193878 -2.895943 3.536140 -3.057943 -11.347091 1.340503 -2.945523 35.326841 0.876254 11.973217 5.289984 2.385500 0.000000 -79.215700 -8.550410 1.641962 5.047612 -3.010048 1.994249 -2.077860 -7.306010 1.888442 0.455777 9.110098 7.648190 4.562825 -4.721686 -0.427410 2.701565 0.000000 0.000000 0.000000 -8.437963 2.116115 1.910741 -58.070788 -4.777416 9.038270 -3.762381 -18.311636 -0.001273 3.675765 1.567458 0.051732 -0.076853 -0.005711 0.000000 0.000000 0.000000 0.000000 0.000000 0.000000 0.000000 19.846538 7.374086 -1.188273 80.039435 25.901667 12.896014 2.392293 23.351869 0.006134 1.884067 10.743473 0.179938 0.002077 -0.157422 0.000000 0.000000 0.000000 0.000000 0.000000 0.000000 0.000000 
-10.666728 16.685630 -1.000479 21.585823 83.564904 47.387104 -7.793004 -0.912105 -0.030419 -14.424530 -3.449590 -49.904245 -2.772629 0.458979 20.803354 0.783132 5.241415 3.394602 1.615601 -0.000000 -18.717600 12.011318 -2.091177 -2.964114 3.027269 -3.241976 -12.696150 1.004208 -3.174046 37.959294 0.715777 11.610748 7.907243 2.882200 0.000000 -79.789600 -8.855148 1.554108 5.254874 -3.078491 1.913690 -2.022722 -7.299484 1.809819 0.457205 8.907144 7.868728 4.700935 -4.729460 -0.427518 2.725244 0.000000 0.000000 0.000000 -8.351280 1.729641 1.927001 -58.161169 -5.257369 8.435639 -3.778785 -17.511437 -0.001725 3.727772 1.726392 0.057626 -0.074954 -0.001283 0.000000 0.000000 0.000000 0.000000 0.000000 0.000000 0.000000 19.681606 7.389571 -1.172352 80.204621 25.453008 10.329518 2.376541 21.728631 0.005575 1.391916 10.710677 0.132031 0.006970 -0.152108 0.000000 0.000000 0.000000 0.000000 0.000000 0.000000 0.000000 
-10.524720 16.718857 -1.003141 22.675183 83.379109 48.487165 -7.683827 -0.847848 -0.123558 -14.690328 -3.599711 -49.168936 -2.796664 0.419960 20.964117 0.846122 5.453282 2.396916 1.547300 0.000000 -19.003700 12.208351 -1.965905 -3.029277 2.652238 -3.333054 -14.061225 0.672759 -3.370422 40.580294 0.518451 11.080179 10.652958 3.338400 0.000000 -79.405700 -9.054265 1.471181 5.466568 -3.123222 1.834685 -1.960411 -7.283108 1.733738 0.475600 8.642667 8.069012 4.832196 -4.732925 -0.427187 2.747669 0.000000 0.000000 0.000000 -8.277496 1.382093 1.936904 -58.319756 -5.864299 7.853143 -3.788218 -16.700139 -0.002199 3.782448 1.877328 0.063322 -0.073086 0.003748 0.000000 0.000000 0.000000 0.000000 0.000000 0.000000 0.000000 19.431354 7.385029 -1.156849 80.286939 25.015484 7.864506 2.358947 20.245596 0.005090 0.811523 10.645162 0.075826 0.013025 -0.147021 -0.000000 0.000000 0.000000 0.000000 0.000000 0.000000 0.000000 
-10.385073 16.754078 -1.010213 23.285031 83.227258 49.104365 -7.615864 -0.799080 -0.214527 -14.885482 -3.688924 -48.358656 -2.824489 0.368056 20.933527 0.897226 5.588560 1.460541 1.460100 -0.000000 -19.220100 12.345500 -1.825657 -3.088005 2.418072 -3.341051 -15.423429 0.360470 -3.532670 43.153406 0.290611 10.373802 13.434579 3.700900 -0.000000 -78.085900 -9.144082 1.393181 5.675693 -3.143336 1.757770 -1.895379 -7.260155 1.660229 0.501927 8.328268 8.256254 4.964144 -4.734013 -0.426657 2.771223 0.000000 0.000000 0.000000 -8.217738 1.038813 1.942422 -58.537756 -6.521234 7.268493 -3.788879 -15.939743 -0.002671 3.840691 2.015028 0.068719 -0.071154 0.009043 0.000000 0.000000 0.000000 0.000000 0.000000 0.000000 0.000000 19.114953 7.370127 -1.137249 80.269935 24.557574 5.585397 2.342969 18.937496 0.004717 0.186303 10.542097 0.015919 0.019864 -0.142198 -0.000000 0.000000 0.000000 0.000000 0.000000 0.000000 0.000000 
-10.247228 16.790582 -1.021251 23.487666 83.106069 49.307080 -7.586856 -0.763419 -0.306673 -15.026923 -3.700369 -47.491959 -2.853754 0.308219 20.737326 0.934377 5.657599 0.650571 1.368300 -0.000000 -19.341400 12.430764 -1.674698 -3.141560 2.304916 -3.294720 -16.771609 0.078176 -3.663418 45.652178 0.041096 9.488814 16.149065 3.919200 0.000000 -75.972700 -9.139203 1.317504 5.882523 -3.142692 1.681334 -1.825455 -7.236309 1.587968 0.545964 7.981606 8.406174 5.080872 -4.737593 -0.426022 2.791134 0.000000 0.000000 0.000000 -8.173330 0.754814 1.941115 -58.795056 -7.280175 6.742743 -3.783000 -15.228411 -0.003132 3.904541 2.130828 0.073618 -0.069315 0.014539 0.000000 0.000000 0.000000 0.000000 0.000000 0.000000 0.000000 18.773085 7.320904 -1.117604 80.148550 24.096507 3.613522 2.333671 17.807172 0.004494 -0.435849 10.394325 -0.042285 0.027184 -0.137396 -0.000000 0.000000 0.000000 0.000000 0.000000 0.000000 0.000000 
